<?xml version="1.0" standalone="no"?>
<!DOCTYPE svg PUBLIC "-//W3C//DTD SVG 20010904//EN"
 "http://www.w3.org/TR/2001/REC-SVG-20010904/DTD/svg10.dtd">
<svg version="1.0" xmlns="http://www.w3.org/2000/svg"
 width="1254.000000pt" height="1254.000000pt" viewBox="0 0 1254.000000 1254.000000"
 preserveAspectRatio="xMidYMid meet">

<g transform="translate(0.000000,1254.000000) scale(0.100000,-0.100000)"
fill="#000000" stroke="none">
<path d="M6277 9563 c-3 -5 -10 -34 -17 -66 -15 -73 -46 -111 -112 -133 l-51
-17 60 -27 c53 -24 63 -34 86 -81 15 -29 27 -63 27 -76 0 -42 16 -24 33 36 19
68 63 114 127 131 41 11 46 30 8 30 -31 0 -93 38 -110 68 -9 15 -21 53 -28 85
-11 57 -15 64 -23 50z"/>
<path d="M6180 9110 c0 -19 7 -20 100 -20 93 0 100 1 100 20 0 19 -7 20 -100
20 -93 0 -100 -1 -100 -20z"/>
<path d="M6240 8960 c-11 -11 -20 -29 -20 -40 0 -11 9 -29 20 -40 53 -53 126
15 79 73 -24 32 -52 34 -79 7z"/>
<path d="M5971 8909 c-336 -86 -629 -345 -758 -670 -66 -167 -73 -217 -76
-603 l-2 -340 -202 3 c-193 3 -203 2 -203 -16 0 -13 12 -23 38 -32 51 -19 152
-92 198 -144 95 -109 156 -255 174 -419 17 -161 83 -334 183 -483 91 -135 277
-300 420 -371 69 -35 215 -87 275 -98 29 -5 32 -3 32 18 0 20 -8 25 -57 36
-115 25 -268 97 -379 178 -51 37 -174 152 -174 162 0 4 28 1 63 -7 118 -28
278 3 404 79 87 53 183 138 281 252 l91 105 64 -77 c151 -180 302 -298 438
-343 84 -27 238 -33 298 -11 19 7 36 10 38 9 2 -2 -25 -33 -60 -68 -120 -121
-296 -224 -467 -273 -68 -19 -85 -28 -85 -42 0 -26 44 -21 160 17 379 126 689
487 745 864 27 189 39 237 80 323 54 112 170 231 273 282 108 53 95 60 -107
60 -116 0 -201 -5 -256 -16 -452 -85 -784 -463 -802 -911 -2 -40 -5 -73 -7
-73 -14 0 -185 177 -248 256 l-32 41 125 168 c148 201 166 230 199 328 54 161
18 322 -96 435 -68 66 -159 104 -159 65 0 -12 20 -29 55 -47 128 -66 196 -214
173 -376 -12 -82 -78 -201 -208 -376 -63 -84 -118 -154 -121 -154 -14 0 -62
81 -53 90 23 23 68 39 85 29 10 -5 25 -9 33 -9 14 0 16 81 16 809 l0 809 -50
7 c-27 4 -63 4 -80 0 l-30 -7 -2 -811 -3 -812 -84 115 c-150 207 -188 319
-156 458 26 109 110 215 191 242 27 9 34 17 34 36 0 22 -3 24 -22 19 -46 -14
-131 -71 -164 -111 -55 -67 -87 -148 -92 -235 -9 -156 34 -254 218 -497 l131
-173 -48 -57 c-71 -84 -225 -242 -235 -242 -5 0 -7 4 -4 8 9 15 -14 195 -35
272 -26 97 -87 226 -143 304 -67 94 -209 223 -312 283 -52 31 -131 66 -192 85
l-103 33 3 355 c4 347 5 357 31 451 105 381 396 675 769 774 47 12 68 23 71
36 3 11 2 21 -1 23 -4 2 -40 -5 -81 -15z m-843 -1663 c6 -7 8 -306 2 -306 -3
0 -20 28 -37 63 -51 98 -122 177 -219 245 -16 11 4 12 115 7 74 -3 136 -7 139
-9z m2532 -13 c-74 -55 -160 -156 -193 -224 -17 -37 -35 -68 -39 -68 -5 -1 -8
62 -8 138 0 134 -1 139 -20 134 -19 -5 -20 -14 -20 -233 0 -126 -5 -264 -11
-307 -19 -144 -108 -363 -176 -435 -68 -72 -248 -100 -380 -59 -37 11 -92 34
-120 51 l-53 30 0 78 c1 227 104 469 274 638 187 186 418 280 696 283 l85 1
-35 -27z m-2337 -43 c312 -130 525 -392 582 -717 8 -47 15 -113 15 -147 l0
-62 -52 -31 c-164 -98 -404 -96 -504 3 -41 41 -115 195 -150 309 -27 87 -27
98 -32 389 l-4 299 35 -6 c19 -3 68 -19 110 -37z"/>
<path d="M6506 8922 c-4 -3 -6 -12 -6 -21 0 -11 24 -22 83 -39 111 -30 265
-106 362 -179 198 -148 330 -340 401 -583 27 -94 27 -99 31 -442 3 -192 8
-348 11 -348 32 1 33 15 30 371 -4 325 -6 360 -26 431 -107 387 -423 698 -808
797 -40 10 -75 16 -78 13z"/>
<path d="M5950 8415 l0 -25 330 0 330 0 0 25 0 25 -330 0 -330 0 0 -25z"/>
<path d="M6260 6183 c-22 -102 -76 -156 -177 -178 -44 -9 -41 -19 10 -32 91
-25 143 -83 166 -189 7 -30 17 -54 23 -52 6 2 18 33 27 68 26 104 75 154 169
175 17 3 32 10 32 15 0 5 -15 12 -32 15 -97 21 -156 78 -173 165 -17 89 -27
92 -45 13z m39 -114 c7 -16 31 -42 52 -56 l39 -26 -28 -17 c-29 -18 -65 -61
-74 -90 -3 -11 -9 -6 -20 15 -18 33 -65 80 -87 87 -8 2 2 14 27 30 22 15 46
41 53 57 8 17 16 31 19 31 3 0 11 -14 19 -31z"/>
<path d="M4205 4979 c-10 -19 -26 -44 -37 -56 -13 -14 -19 -30 -15 -43 3 -12
-3 -40 -13 -63 -10 -23 -72 -167 -139 -321 -66 -153 -128 -290 -136 -303 -9
-14 -32 -31 -51 -39 -19 -8 -34 -16 -34 -19 0 -3 42 -5 93 -5 87 1 91 2 65 16
-39 21 -36 45 25 189 l52 125 180 0 180 0 58 -136 c60 -140 64 -166 24 -180
-26 -9 71 -17 161 -12 l57 3 -37 18 c-42 21 -36 10 -185 352 -177 407 -214
490 -223 499 -5 4 -16 -7 -25 -25z m74 -303 c45 -103 81 -190 81 -192 0 -2
-75 -4 -166 -4 l-165 0 7 23 c16 51 156 369 160 364 2 -1 39 -87 83 -191z"/>
<path d="M7781 4977 c-6 -19 -23 -44 -37 -56 -20 -17 -24 -28 -20 -47 5 -17
-4 -49 -28 -102 -31 -70 -102 -232 -207 -476 -41 -94 -68 -131 -109 -149 -23
-11 -22 -12 23 -15 26 -2 67 -2 90 0 l42 3 -27 14 c-18 9 -28 22 -28 35 1 12
25 77 55 146 l53 125 182 0 182 0 54 -125 c61 -143 65 -167 29 -176 -57 -14
-18 -24 95 -24 66 0 120 2 120 5 0 3 -15 11 -34 19 -23 9 -42 28 -54 53 -17
33 -149 332 -305 693 -25 57 -50 106 -55 108 -6 2 -15 -12 -21 -31z m103 -367
l55 -125 -85 -3 c-46 -1 -122 -1 -168 0 l-84 3 65 150 c35 83 73 170 84 195
l21 45 28 -70 c16 -38 53 -126 84 -195z"/>
<path d="M2690 4995 c0 -3 11 -10 25 -15 14 -5 30 -22 36 -37 16 -44 7 -917
-11 -966 -20 -55 -71 -97 -119 -97 -44 0 -58 12 -63 54 -7 63 -73 60 -73 -4 0
-49 36 -72 114 -72 109 0 195 67 233 180 8 26 14 170 17 477 l6 439 34 23 34
23 -117 0 c-64 0 -116 -2 -116 -5z"/>
<path d="M5638 4980 l32 -20 0 -389 0 -390 -32 -25 -33 -26 113 0 c61 0 112 2
112 5 0 3 -11 10 -25 15 -14 5 -30 21 -35 35 -6 15 -10 114 -10 221 l0 194
280 0 279 0 0 -177 c-1 -214 -6 -254 -37 -269 -43 -21 -35 -24 79 -24 102 1
112 2 94 15 -11 8 -26 19 -32 25 -10 8 -13 99 -13 391 0 380 3 419 35 419 7 0
17 5 20 10 4 6 -34 10 -107 10 l-113 0 31 -19 c39 -24 44 -47 44 -217 l0 -134
-280 0 -280 0 0 144 c0 159 7 192 45 206 14 5 25 12 25 15 0 3 -51 5 -112 5
l-113 0 33 -20z"/>
<path d="M9195 4983 c17 -9 33 -21 37 -27 12 -18 10 -754 -3 -777 -5 -11 -22
-25 -37 -32 -26 -11 -25 -12 21 -15 26 -2 67 -2 90 0 l42 3 -32 18 c-23 12
-34 26 -38 50 -3 17 -4 184 -3 370 l3 339 320 -396 c176 -218 323 -396 328
-396 4 0 7 183 7 406 0 266 4 412 11 425 5 11 22 25 37 32 26 11 25 12 -21 15
-26 2 -67 2 -90 0 -41 -4 -42 -4 -15 -15 15 -7 32 -21 38 -32 7 -14 9 -125 8
-337 l-3 -317 -283 352 -284 351 -81 0 c-81 -1 -82 -1 -52 -17z"/>
<path d="M4860 3240 c0 -93 1 -100 20 -100 16 0 20 7 20 35 0 32 3 35 28 35
43 0 72 26 72 65 0 49 -21 65 -86 65 l-54 0 0 -100z m101 54 c18 -21 0 -48
-35 -52 -24 -3 -26 0 -26 32 0 31 3 36 24 36 13 0 29 -7 37 -16z"/>
<path d="M5290 3240 l0 -101 68 3 c80 4 90 22 14 26 -51 3 -53 4 -50 30 3 24
8 27 46 30 56 4 51 26 -6 30 -37 3 -42 6 -42 28 0 22 4 24 50 24 38 0 50 4 50
15 0 12 -14 15 -65 15 l-65 0 0 -100z"/>
<path d="M5707 3333 c-4 -3 -7 -48 -7 -100 0 -86 1 -93 20 -93 17 0 20 7 20
40 0 28 4 40 14 40 8 0 25 -18 37 -40 16 -29 29 -40 46 -40 l23 0 -24 39 c-25
38 -25 39 -5 56 25 23 24 60 -1 85 -14 14 -33 20 -68 20 -27 0 -52 -3 -55 -7z
m98 -53 c0 -21 -5 -26 -32 -28 -31 -3 -33 -1 -33 28 0 29 2 31 33 28 27 -2 32
-7 32 -28z"/>
<path d="M6140 3335 c-1 -3 -1 -47 -1 -97 -1 -77 2 -94 15 -96 13 -3 16 5 16
37 l0 41 40 0 c29 0 40 4 40 15 0 11 -11 15 -40 15 -38 0 -40 2 -40 30 0 29 1
30 50 30 38 0 50 4 50 15 0 12 -14 15 -65 15 -36 0 -65 -2 -65 -5z"/>
<path d="M6540 3266 c0 -96 20 -126 85 -126 65 0 85 30 85 126 0 67 -2 74 -20
74 -18 0 -20 -7 -20 -73 0 -77 -9 -97 -45 -97 -36 0 -45 20 -45 97 0 66 -2 73
-20 73 -18 0 -20 -7 -20 -74z"/>
<path d="M7000 3298 c-1 -24 -3 -69 -7 -101 -5 -54 -4 -59 13 -55 16 3 20 15
24 68 l5 65 25 -47 c31 -61 52 -62 76 -4 10 24 22 42 26 40 5 -3 8 -32 8 -65
0 -54 2 -59 21 -59 20 0 21 4 15 53 -3 28 -6 73 -6 100 0 42 -2 47 -23 47 -18
0 -29 -13 -52 -57 l-28 -58 -26 58 c-20 45 -30 57 -48 57 -20 0 -23 -5 -23
-42z"/>
<path d="M7500 3240 l0 -100 71 0 c52 0 70 3 67 13 -3 6 -27 14 -54 17 -44 5
-49 7 -49 30 0 22 5 25 43 28 54 4 52 25 -4 32 -31 4 -39 9 -39 25 0 17 8 20
48 23 33 2 47 7 47 18 0 11 -15 14 -65 14 l-65 0 0 -100z"/>
<path d="M4288 3279 c-36 -21 -16 -79 27 -79 43 0 59 44 27 73 -21 19 -30 20
-54 6z"/>
<path d="M8166 3274 c-30 -30 -13 -74 29 -74 44 0 63 60 26 80 -27 14 -37 13
-55 -6z"/>
</g>
</svg>
